<?xml version="1.0" encoding="utf-8"?>
<!-- Generator: Adobe Illustrator 26.1.0, SVG Export Plug-In . SVG Version: 6.00 Build 0)  -->
<svg version="1.1" id="Layer_1" xmlns="http://www.w3.org/2000/svg" xmlns:xlink="http://www.w3.org/1999/xlink" x="0px" y="0px"
	 viewBox="0 0 24 24" style="enable-background:new 0 0 24 24;" xml:space="preserve">
<style type="text/css">
	.st0{fill:#D9D9D9;filter:url(#Adobe_OpacityMaskFilter);}
	.st1{mask:url(#mask0_2568_660_00000156561109985064761630000004161472246267776411_);}
	.st2{fill:#FFFFFF;}
</style>
<defs>
	<filter id="Adobe_OpacityMaskFilter" filterUnits="userSpaceOnUse" x="1" y="1.5" width="22" height="21">
		<feColorMatrix  type="matrix" values="1 0 0 0 0  0 1 0 0 0  0 0 1 0 0  0 0 0 1 0"/>
	</filter>
</defs>
<mask maskUnits="userSpaceOnUse" x="1" y="1.5" width="22" height="21" id="mask0_2568_660_00000156561109985064761630000004161472246267776411_">
	<rect y="0" class="st0" width="24" height="24"/>
</mask>
<g class="st1">
	<path class="st2" d="M8.6,22.5l-1.9-3.2l-3.6-0.8l0.4-3.7L1,12l2.5-2.8L3.1,5.5l3.6-0.8l1.9-3.2L12,3l3.4-1.4l1.9,3.2l3.6,0.8
		l-0.4,3.7L23,12l-2.5,2.8l0.4,3.7l-3.6,0.8l-1.9,3.2L12,21.1L8.6,22.5z M9.4,20l2.6-1.1l2.6,1.1l1.4-2.4l2.8-0.6l-0.2-2.8l1.9-2.1
		l-1.9-2.1l0.2-2.8L16,6.5l-1.4-2.4L12,5.2L9.4,4.1L8,6.5L5.2,7.1l0.2,2.8L3.7,12l1.8,2.1L5.2,17L8,17.6L9.4,20z M10.9,15.6l5.7-5.7
		l-1.4-1.4l-4.2,4.2l-2.1-2.1L7.4,12L10.9,15.6z"/>
</g>
</svg>
