<?xml version="1.0" encoding="utf-8"?>
<!-- Generator: Adobe Illustrator 26.1.0, SVG Export Plug-In . SVG Version: 6.00 Build 0)  -->
<svg version="1.1" id="Layer_1" xmlns="http://www.w3.org/2000/svg" xmlns:xlink="http://www.w3.org/1999/xlink" x="0px" y="0px"
	 viewBox="0 0 24 24" style="enable-background:new 0 0 24 24;" xml:space="preserve">
<style type="text/css">
	.st0{fill:#D9D9D9;filter:url(#Adobe_OpacityMaskFilter);}
	.st1{mask:url(#mask0_2568_651_00000000921468374548318440000006473734505086013577_);}
	.st2{fill:#FFFFFF;}
</style>
<defs>
	<filter id="Adobe_OpacityMaskFilter" filterUnits="userSpaceOnUse" x="3" y="3" width="18" height="18">
		<feColorMatrix  type="matrix" values="1 0 0 0 0  0 1 0 0 0  0 0 1 0 0  0 0 0 1 0"/>
	</filter>
</defs>
<mask maskUnits="userSpaceOnUse" x="3" y="3" width="18" height="18" id="mask0_2568_651_00000000921468374548318440000006473734505086013577_">
	<rect y="0" class="st0" width="24" height="24"/>
</mask>
<g class="st1">
	<path class="st2" d="M12,21c-2.5,0-4.6-0.9-6.4-2.6S3,14.5,3,12s0.9-4.6,2.6-6.4S9.5,3,12,3c0.2,0,0.5,0,0.7,0s0.4,0,0.7,0.1
		c-0.7,0.5-1.2,1.1-1.6,1.9c-0.4,0.8-0.6,1.6-0.6,2.5c0,1.5,0.5,2.8,1.6,3.8s2.3,1.6,3.8,1.6c0.9,0,1.8-0.2,2.5-0.6
		c0.8-0.4,1.4-1,1.9-1.6c0,0.2,0.1,0.4,0.1,0.7c0,0.2,0,0.5,0,0.7c0,2.5-0.9,4.6-2.6,6.4S14.5,21,12,21z M12,19
		c1.5,0,2.8-0.4,3.9-1.2s2-1.9,2.6-3.2c-0.3,0.1-0.7,0.1-1,0.2s-0.7,0.1-1,0.1c-2.1,0-3.8-0.7-5.2-2.2c-1.4-1.4-2.2-3.2-2.2-5.2
		c0-0.3,0-0.7,0.1-1s0.1-0.7,0.2-1C8.1,6,7,6.9,6.2,8.1S5,10.5,5,12c0,1.9,0.7,3.6,2.1,5C8.4,18.3,10.1,19,12,19z"/>
</g>
</svg>
