<svg width="96" height="28" viewBox="0 0 96 28" fill="none" xmlns="http://www.w3.org/2000/svg">
<path d="M16.2018 9.16417C17.0306 7.34832 17.986 5.89478 19.0689 4.8057C19.5291 4.352 20.0363 3.94884 20.5892 3.5962C21.1421 3.24465 21.7343 3.02317 22.3679 2.93179C23.0005 2.84148 23.6745 2.90384 24.3888 3.11886C25.102 3.33495 25.8513 3.78327 26.6343 4.46381C27.256 5.00889 27.7053 5.58192 27.9823 6.18398C28.2582 6.78604 28.4022 7.39885 28.4142 8.02241C28.4251 8.64704 28.3335 9.26523 28.1382 9.87803C27.9419 10.4908 27.6944 11.0703 27.3955 11.6143C26.6812 12.9088 25.6681 14.2021 24.3561 15.4965C25.7608 16.6093 26.8437 17.7671 27.6039 18.9702C27.9256 19.4927 28.1906 20.0431 28.3978 20.6215C28.605 21.201 28.6977 21.802 28.6737 22.4266C28.6508 23.0513 28.4949 23.6931 28.208 24.3511C27.9201 25.0101 27.4304 25.6573 26.7401 26.2927C25.8186 27.156 24.9265 27.6721 24.0638 27.8419C23.2001 28.0118 22.3756 27.9667 21.5936 27.7054C20.8106 27.4442 20.0853 27.0249 19.4168 26.4454C18.7483 25.8659 18.1616 25.2649 17.6555 24.6403C17.1484 24.0156 16.734 23.4265 16.4122 22.8696C16.0894 22.3138 15.8822 21.9106 15.7906 21.6612C14.9389 23.5233 13.9824 24.9983 12.9235 26.0884C12.4621 26.5647 11.9681 26.9743 11.4381 27.3141C10.9081 27.6549 10.3333 27.8699 9.71059 27.9613C9.08787 28.0516 8.43242 27.9785 7.74099 27.7398C7.04956 27.5011 6.32432 27.0302 5.56418 26.3271C4.84985 25.6692 4.34272 25.0047 4.0439 24.335C3.74399 23.6652 3.58258 23.0072 3.56077 22.36C3.53787 21.7128 3.63493 21.0892 3.85414 20.4872C4.07226 19.8862 4.35472 19.3239 4.70044 18.8014C5.48239 17.5532 6.62314 16.3609 8.12052 15.2256C6.41593 14.1139 5.11486 12.9442 4.21731 11.7175C3.82469 11.1961 3.50842 10.6392 3.2674 10.049C3.02529 9.45874 2.91624 8.84594 2.93914 8.20947C2.96204 7.57409 3.1518 6.93225 3.50842 6.28504C3.86505 5.63783 4.45833 4.98524 5.28717 4.32727C6.04731 3.73704 6.78455 3.35108 7.49779 3.16939C8.21103 2.9877 8.89701 2.95974 9.55355 3.08445C10.2101 3.20917 10.8317 3.44246 11.4185 3.7822C12.0052 4.123 12.5407 4.52079 13.0249 4.97449C14.1765 6.04207 15.2355 7.43862 16.2029 9.16309L16.2018 9.16417Z" fill="#1D1D1B"/>
<path d="M32.4373 20.6065C32.2988 19.6765 32.2127 18.6605 32.1778 17.5585C32.1429 16.4576 32.1374 15.4298 32.1603 14.4762C32.1832 13.3646 32.2301 12.24 32.2988 11.1047C32.4144 9.69739 32.7012 8.43737 33.1626 7.32464C33.3698 6.84729 33.6228 6.38285 33.9227 5.92808C34.2226 5.47438 34.5847 5.07122 35.0111 4.71859C35.4375 4.36703 35.9381 4.07782 36.5139 3.8499C37.0898 3.62306 37.7572 3.50909 38.5173 3.50909C39.4389 3.57683 40.2786 3.8499 41.0388 4.32617C41.3616 4.53044 41.6899 4.79169 42.0236 5.10992C42.3573 5.42815 42.6681 5.82487 42.956 6.30221C43.244 6.77848 43.497 7.33539 43.7162 7.97077C43.9354 8.60724 44.1022 9.33293 44.2168 10.15C44.4011 11.739 44.5047 13.2442 44.5276 14.6622C44.5505 16.0814 44.5385 17.336 44.4927 18.4251C44.424 19.6744 44.3313 20.843 44.2168 21.9331C44.0553 23.0459 43.7565 24.0339 43.3181 24.8961C43.1109 25.2595 42.8688 25.6175 42.5929 25.9691C42.317 26.3217 41.9821 26.6389 41.5906 26.9227C41.1991 27.2065 40.7498 27.428 40.2437 27.5871C39.7366 27.7462 39.1608 27.8258 38.5163 27.8258C37.8019 27.8258 37.1694 27.7172 36.6165 27.5022C36.0635 27.2872 35.5749 27.0087 35.1485 26.6679C34.7221 26.3271 34.3655 25.9411 34.0776 25.51C33.7897 25.0789 33.5421 24.636 33.3349 24.1823C32.8736 23.1158 32.5747 21.9235 32.4362 20.6065H32.4373Z" fill="#1D1D1B"/>
<path d="M67.0864 27.213C66.5334 27.3947 65.9576 27.5086 65.3589 27.5538C64.8518 27.5989 64.2934 27.5764 63.6837 27.4861C63.073 27.3957 62.4688 27.1797 61.8701 26.8388C61.1798 26.4303 60.6203 25.9594 60.195 25.4251C59.7685 24.8918 59.4294 24.3693 59.1763 23.8587C58.9233 23.348 58.7499 22.8825 58.6583 22.4621C58.5656 22.0417 58.5089 21.7644 58.486 21.6278C58.4631 21.7644 58.4053 22.0428 58.3126 22.4621C58.2199 22.8825 58.0476 23.348 57.7946 23.8587C57.5416 24.3693 57.2013 24.8918 56.776 25.4251C56.3495 25.9583 55.7912 26.4292 55.1008 26.8388C54.5021 27.1797 53.8968 27.3957 53.2872 27.4861C52.6764 27.5764 52.1181 27.5989 51.612 27.5538C51.0133 27.5086 50.4375 27.3957 49.8845 27.213C49.4232 27.0539 49.0263 26.8442 48.6925 26.583C48.3588 26.3217 48.0818 26.0271 47.8637 25.6971C47.6445 25.3681 47.4613 25.0165 47.3108 24.6413C47.1614 24.2672 47.0512 23.8984 46.9825 23.535C46.7982 22.6728 46.7295 21.7525 46.7753 20.7763C46.844 19.1648 47.0283 17.6833 47.3282 16.3319C47.627 14.9815 48.0011 13.7441 48.4504 12.6195C48.8997 11.496 49.3883 10.4854 49.9184 9.5888C50.4473 8.69217 50.9664 7.88046 51.4735 7.15369C52.2337 6.06461 53.0113 5.23571 53.8052 4.66805C54.5992 4.1004 55.3364 3.68649 56.0158 3.42524C56.6953 3.16399 57.2591 3.0167 57.7084 2.98229C58.1577 2.94789 58.4162 2.93176 58.486 2.93176C58.5558 2.93176 58.8143 2.94896 59.2636 2.98229C59.7129 3.0167 60.2767 3.16399 60.9562 3.42524C61.6356 3.68649 62.3783 4.10148 63.1843 4.66805C63.9902 5.23571 64.7732 6.06461 65.5334 7.15369C66.0394 7.88046 66.552 8.69217 67.0711 9.5888C67.5891 10.4865 68.0734 11.496 68.5227 12.6195C68.972 13.743 69.3461 14.9804 69.6449 16.3319C69.9437 17.6833 70.128 19.1637 70.1978 20.7763C70.2665 21.7525 70.2087 22.6717 70.0244 23.535C69.9546 23.8984 69.8456 24.2672 69.6961 24.6413C69.5456 25.0155 69.3559 25.3681 69.1258 25.6971C68.8957 26.0261 68.6132 26.3217 68.2795 26.583C67.9458 26.8442 67.5477 27.0539 67.0875 27.213H67.0864ZM58.6234 14.9536C58.2308 14.9536 57.8916 15.1009 57.6048 15.3965C57.3169 15.6922 57.1958 16.0211 57.2416 16.3845C57.2875 16.8608 57.4314 17.1909 57.6735 17.3726C57.9156 17.5542 58.2319 17.6446 58.6234 17.6446C59.0149 17.6446 59.3367 17.5317 59.5908 17.3037C59.8438 17.0769 59.9703 16.7705 59.9703 16.3845C59.9703 16.0222 59.8547 15.6922 59.6246 15.3965C59.3945 15.1019 59.0597 14.9536 58.6223 14.9536H58.6234Z" fill="#1D1D1B"/>
<path d="M84.9458 3.54463C86.3276 3.54463 87.5425 3.70912 88.5906 4.0381C89.6386 4.36708 90.5536 4.80465 91.3367 5.34972C92.1186 5.8948 92.7752 6.51299 93.3063 7.20535C93.8352 7.89772 94.2736 8.60729 94.6182 9.33406C95.4242 11.037 95.8844 12.9561 96 15.0891C96 16.7017 95.8386 18.1144 95.5169 19.3293C95.1941 20.5442 94.7742 21.5999 94.2562 22.4966C93.7381 23.3943 93.1514 24.1479 92.4949 24.7607C91.8383 25.3735 91.1644 25.8842 90.474 26.2938C88.8621 27.2249 87.019 27.7581 84.9469 27.8946C83.3808 27.8946 82.0111 27.7302 80.8365 27.4012C79.6619 27.0722 78.6368 26.6411 77.7621 26.1068C76.8864 25.5735 76.1502 24.9607 75.5515 24.2672C74.9528 23.5749 74.4577 22.8653 74.0661 22.1385C73.1446 20.4582 72.6266 18.5402 72.511 16.3835C72.511 14.6128 72.6887 13.0797 73.0464 11.7864C73.4031 10.4919 73.8753 9.37384 74.4631 8.43205C75.0498 7.49026 75.7118 6.71833 76.4491 6.11627C77.1863 5.51529 77.9464 5.03257 78.7295 4.66918C80.5486 3.82953 82.6218 3.45539 84.948 3.5457L84.9458 3.54463ZM84.4278 14.4763C84.0363 14.4763 83.696 14.6246 83.4092 14.9192C83.1213 15.2149 83.0002 15.5439 83.046 15.9072C83.0918 16.3835 83.2358 16.7136 83.4779 16.8953C83.72 17.077 84.0363 17.1673 84.4278 17.1673C84.8193 17.1673 85.141 17.0544 85.3952 16.8265C85.6482 16.5996 85.7747 16.2932 85.7747 15.9072C85.7747 15.5439 85.6591 15.2149 85.429 14.9192C85.1988 14.6246 84.864 14.4763 84.4267 14.4763H84.4278Z" fill="#1D1D1B"/>
<path d="M14.331 7.03597C15.1286 5.28858 16.0479 3.88984 17.0901 2.84182C17.5329 2.40523 18.021 2.01726 18.553 1.67792C19.0851 1.33962 19.655 1.12649 20.2647 1.03856C20.8734 0.951652 21.522 1.01166 22.2094 1.21857C22.8957 1.42652 23.6167 1.85794 24.3703 2.51282C24.9685 3.03735 25.4008 3.58878 25.6674 4.16814C25.9329 4.7475 26.0714 5.3372 26.083 5.93726C26.0935 6.53834 26.0053 7.13322 25.8175 7.72293C25.6286 8.31263 25.3903 8.87027 25.1028 9.39376C24.4154 10.6394 23.4404 11.884 22.1779 13.1296C23.5296 14.2004 24.5718 15.3146 25.3032 16.4723C25.6128 16.9751 25.8679 17.5048 26.0673 18.0614C26.2666 18.619 26.3559 19.1974 26.3328 19.7985C26.3107 20.3995 26.1607 21.0172 25.8846 21.6503C25.6076 22.2845 25.1364 22.9073 24.4721 23.5188C23.5852 24.3495 22.7268 24.8461 21.8966 25.0096C21.0655 25.1731 20.2721 25.1296 19.5196 24.8782C18.7661 24.6268 18.0682 24.2233 17.4249 23.6657C16.7815 23.108 16.2169 22.5297 15.73 21.9286C15.242 21.3275 14.8431 20.7606 14.5336 20.2247C14.2229 19.6898 14.0235 19.3019 13.9354 19.0618C13.1157 20.8537 12.1953 22.2731 11.1763 23.3222C10.7324 23.7805 10.257 24.1747 9.74692 24.5016C9.23687 24.8296 8.6838 25.0365 8.08455 25.1244C7.4853 25.2113 6.85457 25.141 6.18921 24.9113C5.52384 24.6816 4.82594 24.2285 4.09446 23.5519C3.40706 22.9187 2.91905 22.2794 2.6315 21.6348C2.34289 20.9903 2.18757 20.3571 2.16658 19.7343C2.14454 19.1115 2.23795 18.5114 2.44889 17.9321C2.65878 17.3538 2.9306 16.8127 3.26328 16.3099C4.01575 15.1087 5.1135 13.9614 6.55442 12.8689C4.9141 11.7991 3.66208 10.6735 2.79836 9.49308C2.42055 8.99131 2.11621 8.4554 1.88427 7.88742C1.64919 7.32048 1.5432 6.73077 1.56628 6.11831C1.58832 5.50687 1.77093 4.88923 2.11411 4.26642C2.45729 3.64361 3.0282 3.01562 3.8258 2.38247C4.55728 1.81449 5.26672 1.44307 5.95308 1.26823C6.63943 1.09339 7.29955 1.06649 7.93133 1.1865C8.56311 1.30651 9.16131 1.53101 9.72593 1.85794C10.2905 2.1859 10.8058 2.56869 11.2718 3.00528C12.38 4.03261 13.3991 5.37652 14.33 7.03597H14.331Z" fill="#B0A1C0" stroke="#1D1D1B" stroke-miterlimit="10"/>
<path d="M29.9555 18.0469C29.8223 17.152 29.7393 16.1743 29.7058 15.1139C29.6722 14.0545 29.6669 13.0655 29.689 12.1478C29.711 11.078 29.7561 9.99588 29.8223 8.90337C29.9335 7.54911 30.2095 6.33659 30.6534 5.26581C30.8528 4.80646 31.0963 4.35953 31.3849 3.9219C31.6735 3.48531 32.0219 3.09735 32.4323 2.75801C32.8426 2.4197 33.3243 2.1414 33.8785 1.92208C34.4326 1.70378 35.0749 1.59412 35.8063 1.59412C36.6931 1.65929 37.5012 1.92208 38.2327 2.38039C38.5434 2.57696 38.8593 2.82836 39.1804 3.13459C39.5015 3.44083 39.8006 3.82258 40.0777 4.28193C40.3548 4.74025 40.5982 5.27616 40.8092 5.88759C41.0201 6.50006 41.1807 7.19839 41.2909 7.98467C41.4682 9.51377 41.5679 10.9622 41.59 12.3268C41.612 13.6924 41.6005 14.8997 41.5564 15.9478C41.4903 17.1499 41.4011 18.2745 41.2909 19.3236C41.1356 20.3944 40.848 21.3451 40.4261 22.1749C40.2267 22.5245 39.9937 22.8691 39.7282 23.2074C39.4627 23.5467 39.1405 23.8519 38.7638 24.125C38.387 24.3982 37.9546 24.6113 37.4677 24.7644C36.9797 24.9175 36.4255 24.9941 35.8053 24.9941C35.1179 24.9941 34.5092 24.8896 33.9771 24.6827C33.445 24.4757 32.9749 24.2078 32.5645 23.8798C32.1542 23.5519 31.811 23.1805 31.5339 22.7656C31.2569 22.3507 31.0187 21.9245 30.8193 21.4879C30.3753 20.4616 30.0878 19.3143 29.9545 18.0469H29.9555Z" fill="#B0A1C0" stroke="#1D1D1B" stroke-miterlimit="10"/>
<path d="M63.2973 24.4043C62.7652 24.5792 62.2111 24.6888 61.6349 24.7323C61.1469 24.7757 60.6096 24.754 60.0229 24.6671C59.4352 24.5802 58.8538 24.3723 58.2776 24.0443C57.6133 23.6512 57.0749 23.198 56.6656 22.6838C56.2553 22.1707 55.9289 21.6679 55.6854 21.1765C55.442 20.685 55.2751 20.2371 55.1869 19.8326C55.0977 19.428 55.0432 19.1611 55.0211 19.0297C54.9991 19.1611 54.9435 19.4291 54.8543 19.8326C54.7651 20.2371 54.5992 20.685 54.3558 21.1765C54.1123 21.6679 53.7848 22.1707 53.3756 22.6838C52.9652 23.197 52.4279 23.6501 51.7636 24.0443C51.1874 24.3723 50.6049 24.5802 50.0183 24.6671C49.4306 24.754 48.8933 24.7757 48.4063 24.7323C47.8301 24.6888 47.276 24.5802 46.7439 24.4043C46.3 24.2512 45.918 24.0495 45.5969 23.7981C45.2757 23.5467 45.0092 23.2632 44.7993 22.9456C44.5883 22.629 44.412 22.2907 44.2672 21.9296C44.1234 21.5696 44.0174 21.2147 43.9513 20.8651C43.7739 20.0353 43.7078 19.1497 43.7519 18.2103C43.818 16.6595 43.9954 15.2339 44.284 13.9334C44.5715 12.634 44.9315 11.4432 45.3639 10.361C45.7963 9.27992 46.2664 8.30742 46.7765 7.44458C47.2855 6.58175 47.785 5.80065 48.273 5.10128C49.0045 4.05326 49.7528 3.2556 50.5168 2.70935C51.2808 2.16309 51.9902 1.76478 52.6441 1.51338C53.2979 1.26198 53.8405 1.12024 54.2728 1.08714C54.7052 1.05403 54.954 1.03851 55.0211 1.03851C55.0883 1.03851 55.337 1.05507 55.7694 1.08714C56.2018 1.12024 56.7444 1.26198 57.3982 1.51338C58.052 1.76478 58.7667 2.16413 59.5422 2.70935C60.3178 3.2556 61.0713 4.05326 61.8028 5.10128C62.2898 5.80065 62.783 6.58175 63.2826 7.44458C63.7811 8.30845 64.247 9.27992 64.6794 10.361C65.1118 11.4422 65.4718 12.633 65.7593 13.9334C66.0469 15.2339 66.2242 16.6585 66.2914 18.2103C66.3575 19.1497 66.3019 20.0343 66.1245 20.8651C66.0574 21.2147 65.9524 21.5696 65.8086 21.9296C65.6638 22.2897 65.4812 22.629 65.2598 22.9456C65.0383 23.2622 64.7665 23.5467 64.4454 23.7981C64.1242 24.0495 63.7412 24.2512 63.2983 24.4043H63.2973ZM55.1534 12.6071C54.7755 12.6071 54.4492 12.7488 54.1731 13.0333C53.8961 13.3179 53.7796 13.6344 53.8237 13.9841C53.8678 14.4424 54.0063 14.76 54.2393 14.9349C54.4722 15.1097 54.7766 15.1966 55.1534 15.1966C55.5301 15.1966 55.8397 15.088 56.0842 14.8687C56.3277 14.6504 56.4495 14.3555 56.4495 13.9841C56.4495 13.6355 56.3382 13.3179 56.1168 13.0333C55.8953 12.7499 55.5731 12.6071 55.1523 12.6071H55.1534Z" fill="#B0A1C0" stroke="#1D1D1B" stroke-miterlimit="10"/>
<path d="M80.4834 1.62931C81.8131 1.62931 82.9822 1.7876 83.9907 2.10418C84.9993 2.42076 85.8798 2.84183 86.6333 3.36636C87.3858 3.89089 88.0176 4.48577 88.5287 5.15203C89.0377 5.8183 89.4595 6.50111 89.7912 7.20048C90.5667 8.83925 91.0096 10.686 91.1209 12.7386C91.1209 14.2904 90.9655 15.6498 90.6559 16.8189C90.3453 17.988 89.9412 19.0039 89.4428 19.8668C88.9443 20.7306 88.3796 21.4559 87.7479 22.0456C87.1161 22.6353 86.4675 23.1267 85.8032 23.5209C84.2521 24.4168 82.4785 24.9299 80.4845 25.0613C78.9774 25.0613 77.6593 24.903 76.529 24.5865C75.3987 24.2699 74.4122 23.855 73.5705 23.3408C72.7278 22.8277 72.0194 22.238 71.4433 21.5707C70.8671 20.9044 70.3906 20.2216 70.0139 19.5222C69.1271 17.9052 68.6286 16.0595 68.5173 13.9842C68.5173 12.2802 68.6884 10.8049 69.0326 9.56034C69.3758 8.31472 69.8302 7.23876 70.3959 6.33248C70.9605 5.42619 71.5975 4.68337 72.307 4.10401C73.0164 3.52568 73.7479 3.06116 74.5014 2.71148C76.2519 1.90348 78.247 1.54344 80.4855 1.63035L80.4834 1.62931ZM79.9849 12.1488C79.6082 12.1488 79.2807 12.2916 79.0047 12.5751C78.7276 12.8596 78.6112 13.1762 78.6552 13.5259C78.6993 13.9842 78.8378 14.3018 79.0708 14.4766C79.3038 14.6515 79.6082 14.7384 79.9849 14.7384C80.3617 14.7384 80.6713 14.6297 80.9158 14.4104C81.1593 14.1921 81.281 13.8973 81.281 13.5259C81.281 13.1762 81.1698 12.8596 80.9483 12.5751C80.7269 12.2916 80.4047 12.1488 79.9839 12.1488H79.9849Z" fill="#B0A1C0" stroke="#1D1D1B" stroke-miterlimit="10"/>
</svg>
